#N canvas 1 444 240 217 10;
#N canvas 429 580 625 554 scope 1;
#X obj -19 167 gemhead;
#X obj 6 100 gemwin;
#X msg 6 74 create \, 1;
#X obj 113 227 inlet~;
#X obj 140 296 inlet~;
#X obj 140 319 clip~ -1 1;
#X msg 80 74 destroy \, 0;
#X obj 113 250 clip~ -1 1;
#X msg -19 124 1;
#X obj -6 256 pack f f f;
#X obj -19 279 color \$1 \$2 \$3;
#X obj -6 212 / 100;
#X msg -19 52 dimen 1920 1080 \, frame 30;
#X obj 113 273 *~ 555;
#X obj 140 342 *~ 350;
#X floatatom -6 191 5 0 100 0 - - -;
#X floatatom -6 234 5 0 0 0 - - -;
#X obj 399 211 vsl 15 128 0 127 0 0 vol empty empty 0 -9 0 10 -262144
-1 -1 7500 1;
#X text 387 188 volume;
#X floatatom 207 282 5 0 0 0 - - -;
#X floatatom 185 223 5 0 0 0 - - -;
#X floatatom 205 337 5 0 0 0 - - -;
#X obj 438 209 tgl 35 0 tgl_on empty empty 17 7 0 10 -260097 -1 -1
0 1;
#X text 436 188 on/off;
#X obj -19 11 tgl 15 0 empty tgl_on empty 17 7 0 10 -262144 -1 -1 0
1;
#X obj 235 208 hsl 45 15 0 360 0 0 empty empty empty -2 -8 0 10 -262144
-1 -1 1100 1;
#X obj 253 234 vsl 15 45 0 360 0 0 empty empty empty 0 -9 0 10 -262144
-1 -1 1400 1;
#X obj 255 302 knob 32 32 -15 3.3 0 0 empty empty empty 0 -8 0 8 -262144
-1 -1 1600 1;
#X text 285 206 x value adjust;
#X text 272 250 y value adjust;
#X text 294 313 z value adjust;
#X msg 86 162 draw point;
#X msg 86 183 draw line;
#X obj 240 355 adc~;
#X text 32 211 RGB hue;
#X obj 261 405 vsl 8 75 0 127 0 0 empty empty empty 0 -9 0 10 -262144
-1 -1 3515 1;
#X obj 240 405 vsl 8 75 0 127 0 0 empty empty empty 0 -9 0 10 -262144
-1 -1 3515 1;
#X obj 261 381 env~;
#X obj 240 381 env~;
#X floatatom 240 489 5 0 0 0 - - -;
#X floatatom 261 489 5 0 0 0 - - -;
#X obj 6 30 moses 1;
#X msg 86 204 draw tri;
#X floatatom 5 352 5 0 0 0 - length -;
#X floatatom 36 402 5 0 5 0 - width -;
#X msg 5 374 length \$1;
#X msg 36 422 width \$1;
#X obj 423 373 knob 32 32 1 75 0 0 width empty empty 0 -8 0 8 -262144
-1 -1 0 1;
#X obj 355 373 knob 32 32 0 10000 0 0 length empty empty 0 -8 0 8 -262144
-1 -1 1100 1;
#X text 338 409 line length;
#X text 409 409 line width;
#X msg 53 119 1;
#X obj 86 365 scopeXYZ~ 4500;
#X text 151 162 shape options;
#X floatatom 121 407 5 0 0 0 - - -;
#X msg -6 146 100;
#X obj 255 51 bng 15 250 50 0 empty empty empty 17 7 0 10 -262144 -1
-1;
#X obj 317 51 bng 15 250 50 0 empty empty empty 17 7 0 10 -262144 -1
-1;
#X obj 378 51 bng 15 250 50 0 empty empty empty 17 7 0 10 -262144 -1
-1;
#X obj 199 30 moses 43;
#X obj 199 50 bng 15 250 50 0 empty empty empty 17 7 0 10 -262144 -1
-1;
#X floatatom 199 10 5 0 0 0 - time -;
#X obj 378 30 moses 736;
#X obj 317 30 moses 694;
#X obj 255 30 moses 315;
#X msg 359 160 75;
#X obj 439 30 moses 821;
#X obj 460 50 bng 15 250 50 0 empty empty empty 17 7 0 10 -262144 -1
-1;
#X connect 0 0 10 0;
#X connect 2 0 1 0;
#X connect 3 0 7 0;
#X connect 4 0 5 0;
#X connect 5 0 14 0;
#X connect 6 0 1 0;
#X connect 7 0 13 0;
#X connect 8 0 0 0;
#X connect 9 0 10 1;
#X connect 10 0 52 0;
#X connect 11 0 16 0;
#X connect 12 0 1 0;
#X connect 13 0 52 1;
#X connect 14 0 52 2;
#X connect 15 0 11 0;
#X connect 16 0 9 0;
#X connect 16 0 9 1;
#X connect 16 0 9 2;
#X connect 19 0 14 1;
#X connect 20 0 13 1;
#X connect 21 0 52 3;
#X connect 24 0 12 0;
#X connect 24 0 8 0;
#X connect 24 0 41 0;
#X connect 24 0 41 1;
#X connect 24 0 51 0;
#X connect 24 0 55 0;
#X connect 24 0 65 0;
#X connect 25 0 20 0;
#X connect 26 0 19 0;
#X connect 27 0 21 0;
#X connect 31 0 52 0;
#X connect 32 0 52 0;
#X connect 33 0 38 0;
#X connect 33 1 37 0;
#X connect 35 0 40 0;
#X connect 36 0 39 0;
#X connect 37 0 35 0;
#X connect 38 0 36 0;
#X connect 41 0 2 0;
#X connect 41 1 6 0;
#X connect 42 0 52 0;
#X connect 43 0 45 0;
#X connect 44 0 46 0;
#X connect 45 0 52 0;
#X connect 46 0 52 0;
#X connect 51 0 31 0;
#X connect 54 0 52 0;
#X connect 55 0 15 0;
#X connect 56 0 42 0;
#X connect 57 0 32 0;
#X connect 58 0 31 0;
#X connect 59 1 60 0;
#X connect 60 0 32 0;
#X connect 61 0 59 0;
#X connect 61 0 62 0;
#X connect 61 0 63 0;
#X connect 61 0 64 0;
#X connect 61 0 66 0;
#X connect 62 1 58 0;
#X connect 63 1 57 0;
#X connect 64 1 56 0;
#X connect 65 0 17 0;
#X connect 66 1 67 0;
#X connect 67 0 6 0;
#X restore 45 136 pd scope;
#X obj 141 47 metro 1000;
#X obj 141 70 i;
#X obj 174 70 + 1;
#X floatatom 141 93 5 0 0 0 - - time;
#X obj 12 68 readsf~ 2;
#X msg 33 47 1;
#X msg 70 48 0;
#X obj 26 7 bng 15 250 50 0 empty empty empty 17 7 0 10 -262144 -1
-1;
#X obj 12 111 *~ 155;
#X obj 56 111 *~ 155;
#X floatatom 84 90 5 0 0 0 - vol -;
#X obj 45 90 / 100;
#X obj 12 136 dac~;
#X obj 12 -54 tgl 15 0 empty tgl_on empty 17 7 0 10 -262144 -1 -1 0
1;
#X obj 12 -35 moses 1;
#X text 83 73 r vol;
#X msg 12 -14 open background_radiation.wav;
#X obj 141 24 tgl 15 0 empty empty empty 17 7 0 10 -262144 -1 -1 0
1;
#X msg 205 70 0;
#X obj 33 26 del 30000;
#X connect 1 0 2 0;
#X connect 2 0 3 0;
#X connect 2 0 4 0;
#X connect 3 0 2 1;
#X connect 5 0 9 0;
#X connect 5 1 10 0;
#X connect 6 0 5 0;
#X connect 6 0 18 0;
#X connect 7 0 5 0;
#X connect 7 0 19 0;
#X connect 8 0 20 0;
#X connect 9 0 0 0;
#X connect 9 0 13 0;
#X connect 10 0 0 1;
#X connect 10 0 13 1;
#X connect 11 0 12 0;
#X connect 12 0 10 1;
#X connect 12 0 9 1;
#X connect 14 0 15 0;
#X connect 15 0 17 0;
#X connect 15 1 7 0;
#X connect 17 0 5 0;
#X connect 17 0 8 0;
#X connect 18 0 1 0;
#X connect 19 0 2 1;
#X connect 20 0 6 0;
