#N canvas 240 23 1643 853 10;
#X declare -lib mrpeach;
#X msg 221 169 50;
#X msg 215 94 51;
#X msg 452 169 57;
#X msg 452 94 62;
#X obj 13 49 gemwin;
#X msg 13 26 create \, 1;
#X msg 77 26 destroy \, 0;
#X obj 13 169 alpha;
#X obj 13 120 pix_rgba;
#X obj 13 72 gemhead;
#X obj 13 96 pix_video;
#X obj 13 194 pix_texture;
#X floatatom 164 19 5 0 0 0 - - -;
#X floatatom 269 19 5 0 0 0 - - -;
#X floatatom 383 19 5 0 0 0 - - -;
#X msg 326 94 45;
#X msg 269 169 42;
#X obj 215 70 bng 15 250 50 0 empty empty empty 17 7 0 10 -262144 -1
-1;
#X obj 326 70 bng 15 250 50 0 empty empty empty 17 7 0 10 -262144 -1
-1;
#X obj 452 70 bng 15 250 50 0 empty empty empty 17 7 0 10 -262144 -1
-1;
#X obj 452 144 bng 15 250 50 0 empty empty empty 17 7 0 10 -262144
-1 -1;
#X obj 446 217 bng 15 250 50 0 empty empty empty 17 7 0 10 -262144
-1 -1;
#X obj 326 144 bng 15 250 50 0 empty empty empty 17 7 0 10 -262144
-1 -1;
#X obj 221 144 bng 15 250 50 0 empty empty empty 17 7 0 10 -262144
-1 -1;
#X obj 383 217 bng 15 250 50 0 empty empty empty 17 7 0 10 -262144
-1 -1;
#X obj 269 144 bng 15 250 50 0 empty empty empty 17 7 0 10 -262144
-1 -1;
#X obj 164 144 bng 15 250 50 0 empty empty empty 17 7 0 10 -262144
-1 -1;
#X msg 383 242 53;
#X obj 269 44 moses 0.55;
#X obj 269 117 moses 0.45;
#X obj 164 44 moses 0.7;
#X obj 164 117 moses 0.47;
#X obj 383 44 moses 0.0009;
#X obj 383 117 moses 0.0007;
#X obj 383 195 moses 1e-06;
#X msg 326 169 68;
#X msg 446 242 67;
#X msg 164 169 65;
#X msg 326 198 38;
#X msg 164 197 39;
#X msg 446 270 34;
#X msg 446 298 42;
#X obj 519 24 * 80;
#X floatatom 519 49 5 0 0 0 - - -;
#X obj 520 76 * 80;
#X floatatom 520 101 5 0 0 0 - - -;
#X floatatom 520 150 5 0 0 0 - - -;
#X obj 604 201 s oscvol;
#X obj 619 229 s osctype;
#X obj 634 256 s oscattack;
#X obj 652 282 s pitchattack;
#X obj 517 177 +;
#X obj 517 202 * 3;
#X floatatom 544 226 5 0 0 0 - - -;
#X obj 646 6 tgl 15 0 empty tgl empty 17 7 0 10 -262144 -1 -1 0 1;
#X obj 646 54 bng 15 250 50 0 empty empty empty 17 7 0 10 -262144 -1
-1;
#X obj 604 176 f;
#X obj 685 229 f;
#X obj 720 254 f;
#X obj 667 198 f;
#X obj 517 226 / 4;
#X obj 84 220 * 1000;
#X obj 569 12 *;
#X floatatom 578 54 5 0 0 0 - - -;
#X obj 565 32 shuffle 45 145;
#X obj 646 27 metro 750;
#X obj 695 476 knob 32 32 0 127 0 0 empty empty empty 0 -8 0 8 -262144
-1 -1 2587 1;
#X text 701 512 transpose;
#X obj 695 531 ctlout 8;
#X obj 695 304 tgl 15 0 empty tgl empty 17 7 0 10 -262144 -1 -1 0 1
;
#X obj 726 430 bng 15 250 50 0 empty empty empty 17 7 0 10 -262144
-1 -1;
#X obj 710 430 bng 15 250 50 0 empty empty empty 17 7 0 10 -262144
-1 -1;
#X obj 695 430 bng 15 250 50 0 empty empty empty 17 7 0 10 -262144
-1 -1;
#X obj 742 430 bng 15 250 50 0 empty empty empty 17 7 0 10 -262144
-1 -1;
#X msg 695 449 86;
#X msg 710 449 97;
#X msg 726 449 100;
#X msg 742 449 106;
#X floatatom 695 366 5 0 0 0 - - -;
#X obj 695 324 metro 5500;
#X obj 812 476 knob 32 32 0 127 0 0 empty empty empty 0 -8 0 8 -262144
-1 -1 0 1;
#X text 818 512 transpose;
#X obj 812 304 tgl 15 0 empty tgl empty 17 7 0 10 -262144 -1 -1 0 1
;
#X obj 841 430 bng 15 250 50 0 empty empty empty 17 7 0 10 -262144
-1 -1;
#X obj 826 430 bng 15 250 50 0 empty empty empty 17 7 0 10 -262144
-1 -1;
#X obj 812 430 bng 15 250 50 0 empty empty empty 17 7 0 10 -262144
-1 -1;
#X obj 855 430 bng 15 250 50 0 empty empty empty 17 7 0 10 -262144
-1 -1;
#X floatatom 812 366 5 0 0 0 - - -;
#X obj 812 324 metro 5500;
#X obj 812 531 ctlout 9;
#X msg 812 449 0;
#X floatatom 879 511 5 0 0 0 - - -;
#X msg 826 449 45;
#X msg 841 449 55;
#X obj 164 463 makenote 100 350;
#X obj 520 130 f;
#X obj 570 95 * 550;
#X msg 569 138 \$1 900;
#X floatatom 567 162 5 0 0 0 - - -;
#X floatatom 570 116 5 0 0 0 - - -;
#X obj 164 491 noteout 1;
#X obj -23 659 table bong;
#X obj 55 571 metro;
#X obj 55 593 cup;
#X obj 55 690 tabread bong;
#X obj 55 550 tgl 15 0 empty tgl empty 17 7 0 10 -262144 -1 -1 0 1
;
#X floatatom 55 666 5 0 0 0 - - -;
#X floatatom 55 713 5 0 0 0 - - -;
#X obj 55 842 noteout 2;
#X obj 55 735 moses 1;
#X obj 55 756 bng 15 250 50 0 empty empty empty 17 7 0 10 -262144 -1
-1;
#X obj 55 819 makenote 80 5000;
#X obj 135 794 ctlout 11;
#X obj 695 408 sel 0 1 2 3 4 5;
#X obj 812 408 sel 0 1 2 3 4 5;
#X obj 758 430 bng 15 250 50 0 empty empty empty 17 7 0 10 -262144
-1 -1;
#X obj 773 430 bng 15 250 50 0 empty empty empty 17 7 0 10 -262144
-1 -1;
#X msg 773 449 86;
#X obj 870 430 bng 15 250 50 0 empty empty empty 17 7 0 10 -262144
-1 -1;
#X obj 884 430 bng 15 250 50 0 empty empty empty 17 7 0 10 -262144
-1 -1;
#X obj 13 246 rectangle 4 3;
#X obj 695 345 drunk 5;
#X obj 55 798 + 30;
#X obj 55 775 random 42;
#X obj 432 745 tabread bongvol;
#X floatatom 432 723 5 0 0 0 - - -;
#X obj 402 652 tgl 15 0 empty tgl empty 17 7 0 10 -262144 -1 -1 0 1
;
#X obj 432 680 cup;
#X floatatom 432 768 5 0 0 0 - - -;
#X obj 569 630 bng 15 250 50 0 empty empty empty 17 7 0 10 -262144
-1 -1;
#X obj 594 630 bng 15 250 50 0 empty empty empty 17 7 0 10 -262144
-1 -1;
#X obj 620 630 bng 15 250 50 0 empty empty empty 17 7 0 10 -262144
-1 -1;
#X obj 569 677 knob 32 32 0 127 0 0 empty empty empty 0 -8 0 8 -262144
-1 -1 1538 1;
#X obj 569 717 ctlout 12;
#X msg 569 650 52;
#X msg 620 650 63;
#X obj 135 772 r vol2out;
#X obj 88 48 s tgl;
#X obj 13 3 loadbang;
#X obj 13 146 pix_movement 0.2;
#X msg 594 650 43;
#X obj 13 347 /;
#X msg 13 327 60000;
#X floatatom 13 367 5 0 0 0 - - -;
#X obj 13 307 t b f;
#X obj 13 386 s metro;
#X obj 82 505 r metro;
#X floatatom 82 527 5 0 0 0 - - -;
#X obj 697 -16 r metro;
#X floatatom 697 6 5 0 0 0 - - -;
#X obj 13 276 nbx 5 24 12 600 0 0 empty empty empty 0 -8 0 10 -66577
-262144 -262144 144 256;
#X obj 82 548 * 4;
#X obj 55 616 % 99;
#N canvas 0 634 450 300 bong 0;
#X msg -403 -451 \; bong 0 0 0 0 0 1 0 0 0 1 1 0 0 1 0 0 1 1 0 0 0
1 0 1 0 1 0 0 0 1 0 0 0 1 1 0 1 0 1 0 0 1 0 0 0 1 0 1 0 1 1 0 0 1 0
1 1 1 0 1 0 1 1 0 0 1 1 0 1 1 0 0 0 1 1 0 0 1 0 0 0 1 1 1 0 1 0 1 1
1 0 0 0 1 0 1 0 1 1 0 1;
#X restore -15 629 pd bong;
#X obj 782 240 r metro;
#X msg 758 449 52;
#X msg 855 449 0;
#X msg 870 449 0;
#X msg 884 449 0;
#X obj 812 345 randomF 5;
#X obj 21 842 bng 15 250 50 0 empty empty empty 17 7 0 10 -262144 -1
-1;
#X obj 459 612 r metro;
#X floatatom 459 635 5 0 0 0 - - -;
#X obj 432 657 metro;
#X obj 261 656 table bongvol;
#X floatatom 479 809 5 0 0 0 - - -;
#X obj 782 263 * 7;
#X obj 782 286 nbx 5 14 -1e+37 1e+37 0 0 empty empty empty 0 -8 0 10
-262144 -1 -1 2916.67 256;
#X floatatom 106 85 5 0 99 0 - - -;
#X floatatom 106 126 5 0 0 0 - - -;
#X obj 106 105 / 100;
#X obj 13 220 pix_blob 4;
#X obj 432 702 % 499;
#N canvas 1314 1072 418 657 bongvol 0;
#X msg -2956 13 \; bongvol 0 47.0338 47.4604 47.4604 47.4604 47.8871
47.8871 47.8871 48.3138 48.3138 48.3138 48.3138 48.3138 48.7404 48.7404
48.7404 48.7404 48.7404 48.7404 48.7404 49.5938 49.5938 49.5938 50.4471
50.6604 50.8737 51.3004 51.7271 52.1537 52.1537 52.1537 52.1537 52.1537
52.1537 53.0071 53.4337 53.4337 53.4337 53.4337 53.8604 54.2871 54.2871
54.2871 54.7137 55.1404 55.5671 55.9937 56.4204 56.8471 56.8471 57.7004
58.5537 58.9804 59.4071 59.8337 60.6871 60.6871 60.6871 61.1137 61.5404
61.9671 61.9671 62.3937 62.3937 62.8204 62.8204 62.8204 62.8204 62.8204
62.8204 62.8204 62.8204 62.8204 62.8204 62.3937 61.9671 61.9671 61.5404
61.1137 60.6871 60.2604 60.0471 59.4071 59.4071 58.9804 58.1271 57.7004
57.7004 56.8471 56.8471 56.8471 55.9937 55.9937 55.9937 55.5671 55.1404
55.1404 54.7137 54.7137 54.7137 54.7137 54.7137 54.2871 53.8604 53.8604
53.8604 53.6471 53.4337 53.4337 53.4337 53.4337 53.4337 53.4337 53.4337
53.4337 53.4337 53.4337 53.4337 53.4337 53.8604 53.8604 53.8604 54.7137
54.7137 54.7137 54.7137 54.9271 55.1404 55.5671 55.7093 55.8515 55.9937
56.4204 56.8471 56.8471 57.2737 57.7004 58.1271 58.3404 58.5537 58.9804
58.9804 58.9804 59.8337 60.2604 60.6871 61.1137 61.5404 61.9671 62.3937
62.8204 63.2471 63.6737 63.8871 64.5271 64.9537 65.3804 65.5937 65.8071
66.2337 66.6604 67.0871 67.5137 67.9404 68.3671 68.7937 68.936 69.0782
70.5004 70.5004 70.5004 70.5004 70.5004 70.5004 70.5004 70.5004 70.5004
70.5004 70.5004 70.5004 70.5004 70.5004 70.5004 70.5004 70.5004 70.5004
70.5004 70.2871 70.0737 70.0737 70.0737 70.0737 69.6471 69.4337 69.2204
69.2204 69.2204 68.7937 68.3671 68.3671 68.3671 68.3671 68.3671 67.9404
67.9404 67.9404 67.7271 67.5137 67.5137 67.5137 67.5137 67.5137 67.0871
67.0871 67.0871 67.0871 66.6604 66.6604 66.6604 66.6604 66.6604 66.6604
66.6604 66.6604 66.6604 66.6604 66.6604 66.6604 66.6604 66.6604 66.6604
66.6604 67.0871 67.5137 67.656 67.7982 67.9404 68.2248 68.5093 68.7937
68.9004 69.0071 69.1137 69.2204 69.6471 70.0737 70.5004 70.9271 71.2115
71.4959 71.7804 72.2071 72.6337 73.0604 73.4871 73.9137 74.3404 74.9804
75.6204 76.2604 76.9004 77.7537 78.6071 79.4604 79.8871 80.3137 80.7404
82.0204 82.2337 82.4471 82.8737 83.3004 83.727 84.0115 84.2959 84.5804
84.9004 85.2204 85.5404 85.8604 86.1164 86.3724 86.6284 86.8844 87.1404
87.247 87.3537 87.4604 87.567 87.8515 88.1359 88.4204 88.6337 88.847
89.0604 89.2737 89.4159 89.5582 89.7004 89.9137 90.127 90.4115 90.6959
90.9804 91.1226 91.2648 91.4071 91.5493 91.6915 91.8337 92.1537 92.4737
92.7937 93.1137 93.327 93.5404 93.7537 93.967 94.1093 94.2515 94.3937
94.6781 94.9626 95.247 95.247 95.247 95.4604 95.6737 95.8159 95.9582
96.1004 96.207 96.3137 96.4204 96.527 97.807 97.807 97.807 97.807 97.807
97.807 97.807 97.807 97.807 97.807 97.807 97.807 97.807 98.2337 98.2337
98.2337 98.2337 99.087 99.087 99.087 99.087 99.087 99.087 99.087 99.087
99.087 99.087 99.087 99.087 99.087 99.087 99.3004 99.5137 99.5137 99.5137
99.5137 99.9404 99.9404 99.9404 99.9404 100.225 100.509 100.794 100.794
100.794 100.794 100.794 100.794 100.794 100.794 100.794 100.794 100.794
100.794 100.794 100.794 100.794 100.794 100.794 100.794 100.794 100.794
100.794 100.794 100.794 100.794 100.794 100.794 100.794 100.794 100.794
100.58 100.367 100.367 100.154 99.9404 99.5137 99.5137 99.087 99.087
99.087 98.6604 98.2337 97.807 97.807 97.807 97.807 97.3804 96.9537
96.527 96.3137 96.1004 95.247 95.247 94.8204 94.3937 94.1804 93.967
93.5404 93.327 93.1137 92.687 92.2604 91.407 91.407 91.407 90.5537
90.5537 90.127 89.7004 88.847 88.207 87.567 86.5004 86.287 85.4337
84.1537 83.3004 81.5937 80.3137 78.1804 76.9004 76.2604 75.6204 72.4204
71.7804 70.9271 68.7937 68.3671 67.9404 65.8071 65.8071 64.5271 62.3937
62.3937 61.9671 61.1137 60.2604 59.4071 58.9804 58.1271 57.2737 56.8471
56.4204 55.9937 55.5671 55.5671 55.5671 53.8604 53.4337 53.0071 53.0071
52.5804 51.7271 51.7271 51.7271 51.3004 51.3004 51.3004 51.3004 51.3004
51.3004 51.3004 51.3004 51.3004 51.7271;
#X restore 261 633 pd bongvol;
#X obj 1077 80 import mrpeach;
#X obj 1077 122 unpackOSC;
#X obj 1077 143 routeOSC /accxyz;
#X obj 1077 164 routeOSC /0 /1 /2;
#X floatatom 1079 195 5 0 0 0 - - -;
#X floatatom 1112 197 5 0 0 0 - - -;
#X floatatom 1146 194 5 0 0 0 - - -;
#X obj 1077 101 udpreceive 9000;
#X obj 1248 91 sendOSC;
#X msg 1285 57 send /1/fader1 1;
#X msg 1248 25 connect 192.168.1.71 9000;
#X floatatom 1112 265 5 0 0 0 - - -;
#X obj 1097 321 f;
#X obj 1082 306 bng 15 250 50 0 empty empty empty 17 7 0 10 -262144
-1 -1;
#X obj 1082 266 tgl 15 0 empty tgl empty 17 7 0 10 -262144 -1 -1 0
1;
#X obj 1082 342 -;
#X floatatom 1082 364 5 0 0 0 - - -;
#X obj 1112 246 * 180;
#X obj 1082 425 line \$1 1000;
#X obj 1082 448 knob 32 32 0 127 0 0 empty empty empty 0 -8 0 8 -262144
-1 -1 0 1;
#X floatatom 1082 405 5 0 0 0 - - -;
#X obj 1082 284 metro 100;
#X floatatom 1194 265 5 0 0 0 - - -;
#X obj 1179 321 f;
#X obj 1164 306 bng 15 250 50 0 empty empty empty 17 7 0 10 -262144
-1 -1;
#X obj 1164 266 tgl 15 0 empty tgl empty 17 7 0 10 -262144 -1 -1 0
1;
#X obj 1164 342 -;
#X floatatom 1164 364 5 0 0 0 - - -;
#X obj 1194 246 * 180;
#X obj 1164 425 line \$1 1000;
#X obj 1164 448 knob 32 32 0 127 0 0 empty empty empty 0 -8 0 8 -262144
-1 -1 0 1;
#X floatatom 1164 405 5 0 0 0 - - -;
#X obj 1164 284 metro 100;
#X floatatom 1030 265 5 0 0 0 - - -;
#X obj 1015 321 f;
#X obj 1000 306 bng 15 250 50 0 empty empty empty 17 7 0 10 -262144
-1 -1;
#X obj 1000 266 tgl 15 0 empty tgl empty 17 7 0 10 -262144 -1 -1 0
1;
#X obj 1000 342 -;
#X floatatom 1000 364 5 0 0 0 - - -;
#X obj 1030 246 * 180;
#X obj 1000 425 line \$1 1000;
#X obj 1000 448 knob 32 32 0 127 0 0 empty empty empty 0 -8 0 8 -262144
-1 -1 29 1;
#X floatatom 1000 405 5 0 0 0 - - -;
#X obj 1000 284 metro 100;
#X obj 1000 487 ctlout 4;
#X obj 1082 487 ctlout 5;
#X obj 1164 487 ctlout 6;
#X obj 1085 780 knob 32 32 40 127 0 0 empty empty empty 0 -8 0 8 -262144
-1 -1 1835 1;
#X obj 1085 820 ctlout 10;
#X msg 1052 404 700;
#X msg 1134 404 700;
#X msg 1217 404 700;
#X floatatom 1085 606 5 0 0 0 - - -;
#X obj 1022 563 tgl 15 0 empty tgl empty 17 7 0 10 -262144 -1 -1 0
1;
#X obj 1050 617 bng 15 250 50 0 empty empty empty 17 7 0 10 -262144
-1 -1;
#X obj 1085 731 f;
#X obj 1169 819 s volknob;
#X obj 211 439 r volknob;
#X msg 1118 735 1200;
#X obj 480 835 ctlout 11;
#X obj 432 791 * 0.9;
#X obj 1085 514 +;
#X obj 1085 757 line \$1 500;
#X obj 1022 584 metro 600;
#X obj 1085 562 moses 0;
#X obj 1085 584 * -1;
#X floatatom 1085 539 5 0 0 0 - - -;
#X floatatom 1110 657 5 0 0 0 - - -;
#X obj 1082 384 * 0.8;
#X obj 1000 384 * 0.8;
#X obj 1164 384 * 0.5;
#X obj 1246 448 knob 32 32 0 127 0 0 empty empty empty 0 -8 0 8 -262144
-1 -1 1464 1;
#X obj 1328 448 knob 32 32 0 127 0 0 empty empty empty 0 -8 0 8 -262144
-1 -1 4 1;
#X obj 1409 448 knob 32 32 0 127 0 0 empty empty empty 0 -8 0 8 -262144
-1 -1 1484 1;
#X obj 1246 487 ctlout 7;
#X obj 1409 487 ctlout 9;
#X obj 1246 425 line \$1 1000;
#X obj 1409 425 line \$1 1000;
#X obj 1328 425 line \$1 1000;
#X obj 1328 487 ctlout 8;
#X obj 1246 264 +;
#X obj 1328 264 +;
#X floatatom 1246 306 5 0 0 0 - - -;
#X floatatom 1328 306 5 0 0 0 - - -;
#X floatatom 1409 306 5 0 0 0 - - -;
#X obj 1409 264 +;
#X obj 1409 285 / 3;
#X obj 1246 285 / 3;
#X obj 1328 285 / 3;
#X obj 1246 358 moses 0;
#X obj 1246 381 * -1;
#X floatatom 1246 404 5 0 0 0 - - -;
#X obj 1328 358 moses 0;
#X obj 1328 381 * -1;
#X floatatom 1328 404 5 0 0 0 - - -;
#X obj 1409 358 moses 0;
#X obj 1409 381 * -1;
#X floatatom 1409 404 5 0 0 0 - - -;
#X connect 0 0 94 0;
#X connect 1 0 94 0;
#X connect 2 0 94 0;
#X connect 3 0 94 0;
#X connect 5 0 4 0;
#X connect 5 0 137 0;
#X connect 6 0 4 0;
#X connect 6 0 137 0;
#X connect 7 0 11 0;
#X connect 8 0 139 0;
#X connect 9 0 10 0;
#X connect 10 0 8 0;
#X connect 11 0 171 0;
#X connect 12 0 30 0;
#X connect 12 0 62 0;
#X connect 13 0 28 0;
#X connect 13 0 44 0;
#X connect 14 0 32 0;
#X connect 14 0 96 0;
#X connect 15 0 94 0;
#X connect 16 0 94 0;
#X connect 17 0 1 0;
#X connect 18 0 15 0;
#X connect 19 0 3 0;
#X connect 20 0 2 0;
#X connect 21 0 36 0;
#X connect 21 0 40 0;
#X connect 21 0 41 0;
#X connect 22 0 35 0;
#X connect 22 0 38 0;
#X connect 23 0 0 0;
#X connect 24 0 27 0;
#X connect 25 0 16 0;
#X connect 26 0 37 0;
#X connect 26 0 39 0;
#X connect 27 0 94 0;
#X connect 28 0 29 0;
#X connect 28 1 18 0;
#X connect 29 0 25 0;
#X connect 29 1 22 0;
#X connect 30 0 31 0;
#X connect 30 1 17 0;
#X connect 31 0 26 0;
#X connect 31 1 23 0;
#X connect 32 0 33 0;
#X connect 32 1 19 0;
#X connect 33 0 34 0;
#X connect 33 1 20 0;
#X connect 34 0 24 0;
#X connect 34 1 21 0;
#X connect 35 0 94 0;
#X connect 36 0 94 0;
#X connect 37 0 94 0;
#X connect 38 0 94 0;
#X connect 39 0 94 0;
#X connect 40 0 94 0;
#X connect 41 0 94 0;
#X connect 42 0 43 0;
#X connect 42 0 51 0;
#X connect 44 0 45 0;
#X connect 44 0 51 1;
#X connect 45 0 59 1;
#X connect 46 0 57 1;
#X connect 51 0 52 0;
#X connect 52 0 60 0;
#X connect 53 0 58 1;
#X connect 54 0 65 0;
#X connect 55 0 95 0;
#X connect 55 0 56 0;
#X connect 55 0 59 0;
#X connect 55 0 57 0;
#X connect 55 0 58 0;
#X connect 56 0 47 0;
#X connect 57 0 49 0;
#X connect 58 0 50 0;
#X connect 59 0 48 0;
#X connect 60 0 53 0;
#X connect 61 0 14 0;
#X connect 62 0 64 0;
#X connect 64 0 56 1;
#X connect 64 0 63 0;
#X connect 65 0 55 0;
#X connect 66 0 68 0;
#X connect 69 0 79 0;
#X connect 69 0 82 0;
#X connect 70 0 76 0;
#X connect 71 0 75 0;
#X connect 71 0 129 0;
#X connect 72 0 74 0;
#X connect 72 0 130 0;
#X connect 73 0 77 0;
#X connect 74 0 66 0;
#X connect 75 0 66 0;
#X connect 76 0 66 0;
#X connect 77 0 66 0;
#X connect 78 0 113 0;
#X connect 79 0 121 0;
#X connect 80 0 89 0;
#X connect 80 0 91 0;
#X connect 82 0 88 0;
#X connect 83 0 93 0;
#X connect 84 0 92 0;
#X connect 85 0 90 0;
#X connect 86 0 156 0;
#X connect 87 0 114 0;
#X connect 88 0 159 0;
#X connect 90 0 80 0;
#X connect 92 0 80 0;
#X connect 93 0 80 0;
#X connect 94 0 100 0;
#X connect 94 1 100 1;
#X connect 95 0 46 0;
#X connect 96 0 99 0;
#X connect 97 0 98 0;
#X connect 98 0 95 1;
#X connect 99 0 97 0;
#X connect 102 0 103 0;
#X connect 103 0 152 0;
#X connect 104 0 107 0;
#X connect 105 0 102 0;
#X connect 106 0 104 0;
#X connect 107 0 109 0;
#X connect 109 1 110 0;
#X connect 110 0 123 0;
#X connect 111 0 108 0;
#X connect 111 0 160 0;
#X connect 111 1 108 1;
#X connect 113 0 72 0;
#X connect 113 1 71 0;
#X connect 113 2 70 0;
#X connect 113 3 73 0;
#X connect 113 4 115 0;
#X connect 113 5 116 0;
#X connect 114 0 85 0;
#X connect 114 1 84 0;
#X connect 114 2 83 0;
#X connect 114 3 86 0;
#X connect 114 4 118 0;
#X connect 114 5 119 0;
#X connect 115 0 155 0;
#X connect 115 0 131 0;
#X connect 116 0 117 0;
#X connect 117 0 66 0;
#X connect 118 0 157 0;
#X connect 119 0 158 0;
#X connect 121 0 78 0;
#X connect 122 0 111 0;
#X connect 123 0 122 0;
#X connect 124 0 128 0;
#X connect 125 0 124 0;
#X connect 126 0 163 0;
#X connect 127 0 172 0;
#X connect 128 0 234 0;
#X connect 129 0 134 0;
#X connect 130 0 140 0;
#X connect 131 0 135 0;
#X connect 132 0 133 0;
#X connect 134 0 132 0;
#X connect 135 0 132 0;
#X connect 136 0 112 0;
#X connect 138 0 5 0;
#X connect 139 0 7 0;
#X connect 140 0 132 0;
#X connect 141 0 143 0;
#X connect 142 0 141 0;
#X connect 143 0 145 0;
#X connect 144 0 142 0;
#X connect 144 1 141 1;
#X connect 146 0 147 0;
#X connect 147 0 151 0;
#X connect 148 0 149 0;
#X connect 149 0 65 1;
#X connect 150 0 144 0;
#X connect 151 0 102 1;
#X connect 152 0 106 0;
#X connect 154 0 166 0;
#X connect 155 0 66 0;
#X connect 156 0 80 0;
#X connect 157 0 80 0;
#X connect 158 0 80 0;
#X connect 159 0 87 0;
#X connect 161 0 162 0;
#X connect 162 0 163 1;
#X connect 163 0 127 0;
#X connect 165 0 233 0;
#X connect 166 0 167 0;
#X connect 167 0 88 1;
#X connect 167 0 79 1;
#X connect 168 0 170 0;
#X connect 169 0 139 1;
#X connect 170 0 169 0;
#X connect 171 0 120 0;
#X connect 171 1 12 0;
#X connect 171 2 13 0;
#X connect 172 0 125 0;
#X connect 175 0 176 0;
#X connect 176 0 177 0;
#X connect 177 0 178 0;
#X connect 177 1 179 0;
#X connect 177 2 180 0;
#X connect 178 0 213 0;
#X connect 179 0 191 0;
#X connect 180 0 202 0;
#X connect 181 0 175 0;
#X connect 183 0 182 0;
#X connect 184 0 182 0;
#X connect 185 0 186 1;
#X connect 186 0 189 1;
#X connect 187 0 186 0;
#X connect 187 0 189 0;
#X connect 188 0 195 0;
#X connect 189 0 190 0;
#X connect 190 0 242 0;
#X connect 190 0 255 1;
#X connect 190 0 259 0;
#X connect 191 0 185 0;
#X connect 192 0 193 0;
#X connect 193 0 219 0;
#X connect 194 0 192 0;
#X connect 194 0 235 0;
#X connect 195 0 187 0;
#X connect 196 0 197 1;
#X connect 197 0 200 1;
#X connect 198 0 197 0;
#X connect 198 0 200 0;
#X connect 199 0 206 0;
#X connect 200 0 201 0;
#X connect 201 0 244 0;
#X connect 201 0 254 1;
#X connect 201 0 259 1;
#X connect 202 0 196 0;
#X connect 203 0 204 0;
#X connect 204 0 220 0;
#X connect 205 0 203 0;
#X connect 205 0 235 1;
#X connect 206 0 198 0;
#X connect 207 0 208 1;
#X connect 208 0 211 1;
#X connect 209 0 208 0;
#X connect 209 0 211 0;
#X connect 210 0 217 0;
#X connect 211 0 212 0;
#X connect 212 0 243 0;
#X connect 212 0 254 0;
#X connect 212 0 255 0;
#X connect 213 0 207 0;
#X connect 214 0 215 0;
#X connect 215 0 218 0;
#X connect 216 0 214 0;
#X connect 217 0 209 0;
#X connect 221 0 222 0;
#X connect 221 0 230 0;
#X connect 223 0 214 2;
#X connect 224 0 192 2;
#X connect 225 0 203 2;
#X connect 226 0 229 1;
#X connect 227 0 237 0;
#X connect 228 0 229 0;
#X connect 229 0 236 0;
#X connect 229 0 236 1;
#X connect 231 0 94 1;
#X connect 232 0 236 2;
#X connect 234 0 165 0;
#X connect 235 0 240 0;
#X connect 236 0 221 0;
#X connect 237 0 228 0;
#X connect 238 0 239 0;
#X connect 238 1 241 0;
#X connect 239 0 226 0;
#X connect 240 0 238 0;
#X connect 241 0 229 1;
#X connect 242 0 194 0;
#X connect 243 0 216 0;
#X connect 244 0 205 0;
#X connect 245 0 248 0;
#X connect 246 0 253 0;
#X connect 247 0 249 0;
#X connect 250 0 245 0;
#X connect 251 0 247 0;
#X connect 252 0 246 0;
#X connect 254 0 261 0;
#X connect 255 0 262 0;
#X connect 256 0 263 0;
#X connect 257 0 266 0;
#X connect 258 0 269 0;
#X connect 259 0 260 0;
#X connect 260 0 258 0;
#X connect 261 0 256 0;
#X connect 262 0 257 0;
#X connect 263 0 264 0;
#X connect 263 1 250 0;
#X connect 264 0 265 0;
#X connect 265 0 250 0;
#X connect 266 0 267 0;
#X connect 266 1 252 0;
#X connect 267 0 268 0;
#X connect 268 0 252 0;
#X connect 269 0 270 0;
#X connect 269 1 251 0;
#X connect 270 0 271 0;
#X connect 271 0 251 0;
